# xmcd
#
# Track frame offsets:
#	150
#	12820
#	23508
#	40361
#	50635
#	66460
#	82704
#	89172
#	104121
#	112180
#	130383
#	143408
#
# Disc length: 2128 seconds
#
# Revision: 0
# Processed by: cddbd v1.5.2PL0 Copyright (c) Steve Scherf et al.
# Submitted via: EZCDAudioConverter 7.0.6.1
#
DISCID=a6084e0c
DTITLE=Peter Howell and John Ferdinando - Alice Through The Looking Glass
DYEAR=1900
DGENRE=
TTITLE0=The Alice Theme
TTITLE1=The March Of The Chessmen
TTITLE2=Jabberwocky
TTITLE3=Dance Of The Talking Flowers
TTITLE4=Alice's Train Journey
TTITLE5=Through Looking Glass Wood
TTITLE6=Dum And Dee
TTITLE7=The Walrus And The Carpenter
TTITLE8=Alice Meets The Knights
TTITLE9=A-Sitting On A Gate
TTITLE10=Her Majesty Queen Alice
TTITLE11=Whose Dream?
EXTD=
EXTT0=
EXTT1=
EXTT2=
EXTT3=
EXTT4=
EXTT5=
EXTT6=
EXTT7=
EXTT8=
EXTT9=
EXTT10=
EXTT11=
PLAYORDER=
